<?xml version="1.0" encoding="utf-8"?>
<!-- Generator: Adobe Illustrator 19.0.0, SVG Export Plug-In . SVG Version: 6.00 Build 0)  -->
<svg version="1.1" id="Layer_1" xmlns="http://www.w3.org/2000/svg" xmlns:xlink="http://www.w3.org/1999/xlink" x="0px" y="0px"
	 viewBox="0 0 128 49.7" style="enable-background:new 0 0 128 49.7;" xml:space="preserve">
<style type="text/css">
	.st0{fill:#FFFFFF;}
	.st1{fill:#FCB813;}
</style>
<g>
	<g>
		<g id="XMLID_107_">
			<path id="XMLID_110_" class="st0" d="M82.3,47.5c-2.1,1.1-6.6,2.1-12.4,2.1c-15.3,0-24.6-9.6-24.6-24.2C45.2,9.6,56.3,0,71,0
				c5.8,0,9.9,1.2,11.7,2.1l-1.9,7c-2.3-1-5.4-1.9-9.4-1.9c-9.8,0-16.9,6.1-16.9,17.7c0,10.6,6.2,17.4,16.8,17.4
				c3.6,0,7.3-0.7,9.6-1.8L82.3,47.5z"/>
			<path id="XMLID_108_" class="st0" d="M89.8,49V0.8h10l12.4,20.7c3.2,5.4,6,10.9,8.2,16.2h0.1c-0.6-6.4-0.8-12.7-0.8-20V0.8h8.2
				V49h-9.1l-12.6-21.2c-3.1-5.3-6.3-11.2-8.7-16.7l-0.2,0.1c0.4,6.2,0.4,12.6,0.4,20.5V49H89.8z"/>
		</g>
	</g>
	<polygon class="st1" points="42.7,0.8 32.1,34.6 30.6,29.4 23.5,49 25.7,19.1 27.9,24.9 33.3,0.8 	"/>
	<polygon class="st0" points="9.9,0.8 0.4,0.8 16,49 23.5,49 	"/>
</g>
<g>
	<path class="st0" d="M5.2,67.8h1.1c0.2,0,0.3-0.1,0.3-0.3v-6.7c0-0.2-0.1-0.3-0.3-0.3H5.2c-0.2,0-0.3,0.1-0.3,0.3v6.7
		C4.9,67.7,5.1,67.8,5.2,67.8z"/>
	<path class="st0" d="M10.1,63.7c0,0,0.1,0.1,0.1,0.1l4.3,4.1c0.1,0.1,0.1,0.1,0.2,0.1c0,0,0.1,0,0.1,0c0.1,0,0.2-0.2,0.2-0.3v-6.9
		c0-0.2-0.1-0.3-0.3-0.3h-1c-0.2,0-0.3,0.1-0.3,0.3v3.8c-0.1-0.1-0.2-0.2-0.2-0.2L9,60.4c-0.1-0.1-0.2-0.1-0.3-0.1
		c-0.1,0-0.2,0.2-0.2,0.3v6.9c0,0.2,0.1,0.3,0.3,0.3h1c0.2,0,0.3-0.1,0.3-0.3V63.7z"/>
	<path class="st0" d="M16.5,62.1H18v5.5c0,0.2,0.1,0.3,0.3,0.3h1.1c0.2,0,0.3-0.1,0.3-0.3v-5.5h1.5c0.2,0,0.3-0.1,0.3-0.3v-0.9
		c0-0.2-0.1-0.3-0.3-0.3h-4.6c-0.2,0-0.3,0.1-0.3,0.3v0.9C16.2,61.9,16.3,62.1,16.5,62.1z"/>
	<path class="st0" d="M26.6,60.6h-3.7c-0.2,0-0.3,0.1-0.3,0.3v6.7c0,0.2,0.1,0.3,0.3,0.3h3.7c0.2,0,0.3-0.1,0.3-0.3v-1
		c0-0.2-0.1-0.3-0.3-0.3h-2.3v-1.6h2.3c0.2,0,0.3-0.1,0.3-0.3v-1c0-0.2-0.1-0.3-0.3-0.3h-2.3v-1.1h2.3c0.2,0,0.3-0.1,0.3-0.3v-0.9
		C26.9,60.7,26.8,60.6,26.6,60.6z"/>
	<path class="st0" d="M32.3,66.3h-2.1v-5.4c0-0.2-0.1-0.3-0.3-0.3h-1.1c-0.2,0-0.3,0.1-0.3,0.3v6.7c0,0.2,0.1,0.3,0.3,0.3h3.5
		c0.2,0,0.3-0.1,0.3-0.3v-1C32.6,66.4,32.4,66.3,32.3,66.3z"/>
	<path class="st0" d="M34.1,67.8h3.5c0.2,0,0.3-0.1,0.3-0.3v-1c0-0.2-0.1-0.3-0.3-0.3h-2.1v-5.4c0-0.2-0.1-0.3-0.3-0.3h-1.1
		c-0.2,0-0.3,0.1-0.3,0.3v6.7C33.8,67.7,33.9,67.8,34.1,67.8z"/>
	<path class="st0" d="M39.4,67.8h1.1c0.2,0,0.3-0.1,0.3-0.3v-6.7c0-0.2-0.1-0.3-0.3-0.3h-1.1c-0.2,0-0.3,0.1-0.3,0.3v6.7
		C39.1,67.7,39.3,67.8,39.4,67.8z"/>
	<path class="st0" d="M43.5,66.9c0.4,0.4,0.8,0.6,1.2,0.8c0.5,0.2,1,0.3,1.6,0.3c1.1,0,1.9-0.3,2.5-0.9c0.6-0.6,0.9-1.4,0.9-2.4
		c0-0.1,0-0.2,0-0.4c0-0.1,0-0.1,0-0.2c0-0.2-0.1-0.3-0.3-0.3h-2.6c-0.2,0-0.3,0.1-0.3,0.3V65c0,0.2,0.1,0.3,0.3,0.3H48
		c0,0.3-0.2,0.6-0.4,0.8c-0.3,0.2-0.7,0.4-1.3,0.4c-0.7,0-1.2-0.2-1.6-0.6c-0.4-0.4-0.6-0.9-0.6-1.6c0-0.7,0.2-1.2,0.6-1.6
		c0.4-0.4,0.9-0.6,1.6-0.6c0.3,0,0.6,0.1,0.8,0.2c0.2,0.1,0.5,0.3,0.7,0.5c0.1,0.1,0.3,0.1,0.4,0l0.8-0.6c0.1,0,0.1-0.1,0.1-0.2
		c0-0.1,0-0.2-0.1-0.2c-0.4-0.4-0.8-0.8-1.2-1c-0.5-0.2-1-0.3-1.5-0.3c-0.5,0-1,0.1-1.5,0.3c-0.5,0.2-0.9,0.4-1.2,0.8
		c-0.4,0.4-0.6,0.8-0.8,1.2c-0.2,0.5-0.3,1-0.3,1.5c0,0.5,0.1,1,0.3,1.5C42.9,66.2,43.1,66.6,43.5,66.9z"/>
	<path class="st0" d="M51.4,67.8h3.7c0.2,0,0.3-0.1,0.3-0.3v-1c0-0.2-0.1-0.3-0.3-0.3h-2.3v-1.6h2.3c0.2,0,0.3-0.1,0.3-0.3v-1
		c0-0.2-0.1-0.3-0.3-0.3h-2.3v-1.1h2.3c0.2,0,0.3-0.1,0.3-0.3v-0.9c0-0.2-0.1-0.3-0.3-0.3h-3.7c-0.2,0-0.3,0.1-0.3,0.3v6.7
		C51.1,67.7,51.3,67.8,51.4,67.8z"/>
	<path class="st0" d="M58.6,63.7c0,0.1,0.1,0.1,0.1,0.1l4.3,4.1c0.1,0.1,0.1,0.1,0.2,0.1c0,0,0.1,0,0.1,0c0.1,0,0.2-0.2,0.2-0.3
		v-6.9c0-0.2-0.1-0.3-0.3-0.3h-1c-0.2,0-0.3,0.1-0.3,0.3v3.8c-0.1-0.1-0.2-0.2-0.2-0.2l-4.2-4.1c-0.1-0.1-0.2-0.1-0.3-0.1
		c-0.1,0-0.2,0.2-0.2,0.3v6.9c0,0.2,0.1,0.3,0.3,0.3h1c0.2,0,0.3-0.1,0.3-0.3V63.7z"/>
	<path class="st0" d="M66.5,67.5c0,0.2,0.1,0.3,0.3,0.3h1.1c0.2,0,0.3-0.1,0.3-0.3v-5.5h1.5c0.2,0,0.3-0.1,0.3-0.3v-0.9
		c0-0.2-0.1-0.3-0.3-0.3H65c-0.2,0-0.3,0.1-0.3,0.3v0.9c0,0.2,0.1,0.3,0.3,0.3h1.5V67.5z"/>
	<path class="st0" d="M78.9,63.9c0.1-0.1,0.2-0.2,0.3-0.3c0.2-0.3,0.3-0.6,0.3-1.1c0-0.3-0.1-0.7-0.2-0.9c-0.1-0.3-0.3-0.5-0.6-0.7
		c-0.2-0.1-0.4-0.2-0.7-0.3c-0.3-0.1-0.6-0.1-1.1-0.1h-1.7c-0.2,0-0.3,0.1-0.3,0.3v6.7c0,0.2,0.1,0.3,0.3,0.3h1.7
		c0.7,0,1.1,0,1.4-0.1c0.3-0.1,0.6-0.2,0.8-0.5c0.2-0.2,0.4-0.4,0.5-0.7c0.1-0.3,0.2-0.6,0.2-0.9c0-0.5-0.1-0.9-0.4-1.3
		C79.2,64.2,79,64.1,78.9,63.9z M77.6,63.2c-0.1,0.1-0.4,0.2-0.9,0.2h-0.1v-1.3h0.1c0.6,0,0.9,0.1,0.9,0.2c0.1,0.1,0.2,0.3,0.2,0.5
		C77.8,63.1,77.6,63.2,77.6,63.2z M76.5,64.8h0.4c0.2,0,0.4,0,0.5,0c0.1,0,0.2,0,0.3,0.1c0.1,0.1,0.2,0.1,0.3,0.3
		c0.1,0.1,0.1,0.2,0.1,0.4c0,0.1,0,0.3-0.1,0.4c0,0.1-0.1,0.2-0.2,0.2c-0.1,0.1-0.2,0.1-0.3,0.1c-0.2,0-0.4,0-0.8,0h-0.1V64.8z"/>
	<path class="st0" d="M84.2,68c1,0,1.8-0.3,2.3-0.8c0.5-0.5,0.8-1.3,0.8-2.2v-4.1c0-0.2-0.1-0.3-0.3-0.3h-1.1
		c-0.2,0-0.3,0.1-0.3,0.3v4c0,0.5-0.1,0.9-0.3,1.2c-0.2,0.2-0.6,0.4-1,0.4c-0.5,0-0.8-0.1-1-0.4c-0.2-0.2-0.3-0.6-0.3-1.2v-4
		c0-0.2-0.1-0.3-0.3-0.3h-1.1c-0.2,0-0.3,0.1-0.3,0.3V65c0,1,0.3,1.7,0.8,2.2C82.4,67.7,83.2,68,84.2,68z"/>
	<path class="st0" d="M89.4,67.8h1.1c0.2,0,0.3-0.1,0.3-0.3v-6.7c0-0.2-0.1-0.3-0.3-0.3h-1.1c-0.2,0-0.3,0.1-0.3,0.3v6.7
		C89.1,67.7,89.2,67.8,89.4,67.8z"/>
	<path class="st0" d="M92.9,67.8h3.5c0.2,0,0.3-0.1,0.3-0.3v-1c0-0.2-0.1-0.3-0.3-0.3h-2.1v-5.4c0-0.2-0.1-0.3-0.3-0.3h-1.1
		c-0.2,0-0.3,0.1-0.3,0.3v6.7C92.6,67.7,92.8,67.8,92.9,67.8z"/>
	<path class="st0" d="M98.2,67.8h1.8c0.8,0,1.4,0,1.8-0.2c0.4-0.1,0.8-0.3,1.1-0.5c0.4-0.3,0.7-0.7,1-1.2c0.2-0.5,0.3-1.1,0.3-1.7
		c0-0.6-0.1-1.2-0.3-1.7c-0.2-0.5-0.5-0.9-1-1.2c-0.3-0.2-0.7-0.4-1.1-0.5c-0.4-0.1-1.1-0.2-2.1-0.2h-1.5c-0.2,0-0.3,0.1-0.3,0.3
		v6.7C97.9,67.7,98.1,67.8,98.2,67.8z M100.2,66.3h-0.6v-4.1h0.5c0.5,0,0.9,0,1.2,0.1c0.2,0.1,0.4,0.1,0.6,0.3
		c0.2,0.2,0.4,0.4,0.5,0.7c0.1,0.3,0.2,0.6,0.2,1c0,0.4-0.1,0.7-0.2,1c-0.1,0.3-0.3,0.5-0.5,0.7c-0.2,0.1-0.3,0.2-0.5,0.3
		C101.1,66.2,100.7,66.3,100.2,66.3z"/>
	<path class="st0" d="M107.2,67.8c0.2,0,0.3-0.1,0.3-0.3v-6.7c0-0.2-0.1-0.3-0.3-0.3h-1.1c-0.2,0-0.3,0.1-0.3,0.3v6.7
		c0,0.2,0.1,0.3,0.3,0.3H107.2z"/>
	<path class="st0" d="M109.7,67.8h1c0.2,0,0.3-0.1,0.3-0.3v-3.8c0,0.1,0.1,0.1,0.2,0.1l4.3,4.1c0.1,0.1,0.1,0.1,0.2,0.1
		c0,0,0.1,0,0.1,0c0.1,0,0.2-0.2,0.2-0.3v-6.9c0-0.2-0.1-0.3-0.3-0.3h-1c-0.2,0-0.3,0.1-0.3,0.3v3.8c-0.1-0.1-0.2-0.2-0.2-0.2
		l-4.2-4.1c-0.1-0.1-0.2-0.1-0.3-0.1c-0.1,0-0.2,0.2-0.2,0.3v6.9C109.4,67.7,109.5,67.8,109.7,67.8z"/>
	<path class="st0" d="M118.6,66.9c0.3,0.4,0.8,0.6,1.2,0.8c0.5,0.2,1,0.3,1.6,0.3c1.1,0,1.9-0.3,2.5-0.9c0.6-0.6,0.9-1.4,0.9-2.4
		c0-0.1,0-0.2,0-0.4c0-0.1,0-0.1,0-0.2c0-0.2-0.1-0.3-0.3-0.3h-2.6c-0.2,0-0.3,0.1-0.3,0.3V65c0,0.2,0.1,0.3,0.3,0.3h1.3
		c0,0.3-0.2,0.6-0.4,0.8c-0.3,0.2-0.7,0.4-1.3,0.4c-0.7,0-1.2-0.2-1.6-0.6c-0.4-0.4-0.6-0.9-0.6-1.6c0-0.7,0.2-1.2,0.6-1.6
		c0.4-0.4,0.9-0.6,1.6-0.6c0.3,0,0.6,0.1,0.8,0.2c0.2,0.1,0.5,0.3,0.7,0.5c0.1,0.1,0.3,0.1,0.4,0l0.8-0.6c0.1,0,0.1-0.1,0.1-0.2
		c0-0.1,0-0.2-0.1-0.2c-0.4-0.4-0.8-0.7-1.2-1c-0.5-0.2-1-0.3-1.5-0.3c-0.5,0-1,0.1-1.5,0.3c-0.5,0.2-0.9,0.4-1.2,0.8
		c-0.4,0.4-0.6,0.8-0.8,1.2c-0.2,0.5-0.3,1-0.3,1.5c0,0.5,0.1,1,0.3,1.5C118,66.2,118.2,66.6,118.6,66.9z"/>
	<path class="st0" d="M-5,72.8h-1.1c-0.2,0-0.3,0.1-0.3,0.3v6.7c0,0.2,0.1,0.3,0.3,0.3H-5c0.2,0,0.3-0.1,0.3-0.3v-6.7
		C-4.7,72.9-4.8,72.8-5,72.8z"/>
	<path class="st0" d="M3,72.8H2c-0.2,0-0.3,0.1-0.3,0.3v3.8c-0.1-0.1-0.2-0.2-0.2-0.2l-4.2-4.1c-0.1-0.1-0.2-0.1-0.3-0.1
		c-0.1,0-0.2,0.2-0.2,0.3v6.9c0,0.2,0.1,0.3,0.3,0.3h1c0.2,0,0.3-0.1,0.3-0.3v-3.8c0,0.1,0.1,0.1,0.1,0.2l4.3,4.1
		c0.1,0.1,0.1,0.1,0.2,0.1c0,0,0.1,0,0.1,0c0.1,0,0.2-0.2,0.2-0.3v-6.9C3.3,72.9,3.1,72.8,3,72.8z"/>
	<path class="st0" d="M8.7,72.8H5c-0.2,0-0.3,0.1-0.3,0.3v6.7c0,0.2,0.1,0.3,0.3,0.3h1.1c0.2,0,0.3-0.1,0.3-0.3v-2.8h2.3
		c0.2,0,0.3-0.1,0.3-0.3v-1c0-0.2-0.1-0.3-0.3-0.3H6.3v-1.1h2.3C8.9,74.3,9,74.2,9,74v-0.9C9,72.9,8.9,72.8,8.7,72.8z"/>
	<path class="st0" d="M18.6,72.7c0-0.1-0.2-0.2-0.3-0.2l0,0c-0.1,0-0.2,0.1-0.3,0.2L15,79.4l-1.9-2.4c0.4-0.1,0.6-0.3,0.9-0.5
		c0.3-0.4,0.5-0.8,0.5-1.4c0-0.3-0.1-0.7-0.2-1c-0.1-0.3-0.3-0.5-0.6-0.7c-0.2-0.2-0.5-0.3-0.7-0.3c-0.3-0.1-0.6-0.1-1.1-0.1h-1.5
		c-0.2,0-0.3,0.1-0.3,0.3v6.7c0,0.2,0.1,0.3,0.3,0.3h1c0.2,0,0.3-0.1,0.3-0.3v-2.3l1.8,2.4c0.1,0.1,0.1,0.1,0.2,0.1h1.2
		c0,0,0.1,0,0.1,0c0,0,0.1,0,0.1,0h1.1c0.1,0,0.2-0.1,0.3-0.2l0.7-1.5h2.3l0.7,1.5c0,0.1,0.2,0.2,0.3,0.2h1.1c0.1,0,0.2-0.1,0.2-0.1
		c0.1-0.1,0.1-0.2,0-0.3L18.6,72.7z M18.8,76.9h-1l0.5-1.1L18.8,76.9z M12.7,75c0,0.2-0.1,0.4-0.2,0.5c-0.1,0-0.3,0.1-0.9,0.1v-1.3
		c0.6,0,0.8,0.1,0.9,0.2C12.7,74.6,12.7,74.8,12.7,75z"/>
	<path class="st0" d="M25,75.6l-0.1-0.1c-0.6-0.3-1-0.6-1-0.9c0-0.2,0.1-0.3,0.2-0.4c0.1-0.1,0.3-0.2,0.5-0.2c0.2,0,0.3,0,0.4,0.1
		c0.1,0.1,0.2,0.2,0.3,0.4c0.1,0.1,0.2,0.2,0.4,0.1l0.8-0.4c0.1-0.1,0.2-0.2,0.1-0.4c-0.2-0.4-0.4-0.7-0.8-1
		c-0.4-0.2-0.8-0.3-1.4-0.3c-0.7,0-1.2,0.2-1.6,0.6c-0.4,0.4-0.6,0.9-0.6,1.5c0,0.5,0.1,0.9,0.4,1.3c0.3,0.3,0.8,0.7,1.6,1.1
		c0,0,0.1,0.1,0.2,0.1c0.4,0.2,0.8,0.5,0.8,0.8c0,0.2-0.1,0.4-0.2,0.5c-0.1,0.1-0.3,0.2-0.6,0.2c-0.3,0-0.5-0.1-0.7-0.2
		c-0.2-0.1-0.3-0.3-0.3-0.5c0-0.1-0.1-0.2-0.2-0.2c-0.1,0-0.2,0-0.2,0l-0.9,0.4C22,78.2,22,78.4,22,78.5c0.1,0.6,0.4,1,0.8,1.3
		c0.4,0.3,0.9,0.4,1.6,0.4c0.7,0,1.4-0.2,1.8-0.6c0.5-0.4,0.7-1,0.7-1.7c0-0.5-0.1-0.9-0.4-1.3C26.2,76.3,25.7,76,25,75.6z"/>
	<path class="st0" d="M32.2,72.8h-4.6c-0.2,0-0.3,0.1-0.3,0.3V74c0,0.2,0.1,0.3,0.3,0.3H29v5.5c0,0.2,0.1,0.3,0.3,0.3h1.1
		c0.2,0,0.3-0.1,0.3-0.3v-5.5h1.5c0.2,0,0.3-0.1,0.3-0.3v-0.9C32.5,72.9,32.3,72.8,32.2,72.8z"/>
	<path class="st0" d="M36.2,76.9c0.4-0.1,0.6-0.3,0.9-0.5c0.3-0.4,0.5-0.8,0.5-1.4c0-0.3-0.1-0.7-0.2-1c-0.1-0.3-0.3-0.5-0.6-0.7
		c-0.2-0.2-0.5-0.3-0.7-0.3c-0.3-0.1-0.6-0.1-1.1-0.1h-1.5c-0.2,0-0.3,0.1-0.3,0.3v6.7c0,0.2,0.1,0.3,0.3,0.3h1
		c0.2,0,0.3-0.1,0.3-0.3v-2.3l1.8,2.4c0.1,0.1,0.1,0.1,0.2,0.1H38c0.1,0,0.2-0.1,0.3-0.2c0-0.1,0-0.2,0-0.3L36.2,76.9z M35.9,75
		c0,0.2-0.1,0.4-0.2,0.5c-0.1,0-0.3,0.1-0.9,0.1v-1.3c0.6,0,0.8,0.1,0.9,0.2C35.8,74.6,35.9,74.8,35.9,75z"/>
	<path class="st0" d="M44.6,72.8h-1.1c-0.2,0-0.3,0.1-0.3,0.3v4c0,0.5-0.1,0.9-0.3,1.2c-0.2,0.2-0.6,0.4-1,0.4c-0.5,0-0.8-0.1-1-0.4
		c-0.2-0.2-0.3-0.6-0.3-1.2v-4c0-0.2-0.1-0.3-0.3-0.3h-1.1c-0.2,0-0.3,0.1-0.3,0.3v4.1c0,1,0.3,1.7,0.8,2.2c0.5,0.5,1.3,0.8,2.3,0.8
		c1,0,1.8-0.3,2.3-0.8c0.5-0.5,0.8-1.3,0.8-2.2v-4.1C44.9,72.9,44.7,72.8,44.6,72.8z"/>
	<path class="st0" d="M52.1,73.4c-0.4-0.2-0.7-0.4-1.1-0.6c-0.4-0.1-0.8-0.2-1.2-0.2c-0.5,0-1,0.1-1.5,0.3c-0.5,0.2-0.9,0.5-1.2,0.8
		c-0.4,0.3-0.6,0.8-0.8,1.2c-0.2,0.5-0.3,1-0.3,1.5c0,0.5,0.1,1,0.3,1.5c0.2,0.5,0.5,0.9,0.8,1.2c0.4,0.4,0.8,0.6,1.2,0.8
		c0.5,0.2,1,0.3,1.5,0.3c0.4,0,0.8-0.1,1.2-0.2c0.4-0.1,0.7-0.3,1-0.5c0.1-0.1,0.1-0.1,0.1-0.2v-1.2c0-0.1-0.1-0.2-0.2-0.3
		c-0.1,0-0.2,0-0.3,0c-0.3,0.3-0.6,0.5-0.9,0.6c-0.3,0.1-0.7,0.2-1,0.2c-0.6,0-1.1-0.2-1.5-0.6c-0.4-0.4-0.6-0.9-0.6-1.6
		c0-0.7,0.2-1.2,0.6-1.6c0.4-0.4,0.9-0.6,1.6-0.6c0.3,0,0.7,0.1,1,0.2c0.3,0.1,0.6,0.3,0.9,0.5c0.1,0.1,0.2,0.1,0.3,0
		c0.1,0,0.2-0.1,0.2-0.3l0.1-1.1C52.2,73.5,52.2,73.4,52.1,73.4z"/>
	<path class="st0" d="M57.6,72.8H53c-0.2,0-0.3,0.1-0.3,0.3V74c0,0.2,0.1,0.3,0.3,0.3h1.5v5.5c0,0.2,0.1,0.3,0.3,0.3h1.1
		c0.2,0,0.3-0.1,0.3-0.3v-5.5h1.5c0.2,0,0.3-0.1,0.3-0.3v-0.9C57.9,72.9,57.8,72.8,57.6,72.8z"/>
	<path class="st0" d="M64.4,72.8h-1.1c-0.2,0-0.3,0.1-0.3,0.3v4c0,0.5-0.1,0.9-0.3,1.2c-0.2,0.2-0.6,0.4-1,0.4c-0.5,0-0.8-0.1-1-0.4
		c-0.2-0.2-0.3-0.6-0.3-1.2v-4c0-0.2-0.1-0.3-0.3-0.3h-1.1c-0.2,0-0.3,0.1-0.3,0.3v4.1c0,1,0.3,1.7,0.8,2.2c0.5,0.5,1.3,0.8,2.3,0.8
		c1,0,1.8-0.3,2.3-0.8c0.5-0.5,0.8-1.3,0.8-2.2v-4.1C64.6,72.9,64.5,72.8,64.4,72.8z"/>
	<path class="st0" d="M69.1,76.9c0.4-0.1,0.6-0.3,0.9-0.5c0.3-0.4,0.5-0.8,0.5-1.4c0-0.3-0.1-0.7-0.2-1c-0.1-0.3-0.3-0.5-0.6-0.7
		c-0.2-0.2-0.5-0.3-0.7-0.3c-0.3-0.1-0.6-0.1-1.1-0.1h-1.5c-0.2,0-0.3,0.1-0.3,0.3v6.7c0,0.2,0.1,0.3,0.3,0.3h1
		c0.2,0,0.3-0.1,0.3-0.3v-2.3l1.8,2.4c0.1,0.1,0.1,0.1,0.2,0.1h1.2c0.1,0,0.2-0.1,0.3-0.2c0.1-0.1,0-0.2,0-0.3L69.1,76.9z M68.7,75
		c0,0.2-0.1,0.4-0.2,0.5c-0.1,0-0.3,0.1-0.9,0.1v-1.3c0.6,0,0.8,0.1,0.9,0.2C68.7,74.6,68.7,74.8,68.7,75z"/>
	<path class="st0" d="M75.7,72.8H72c-0.2,0-0.3,0.1-0.3,0.3v6.7c0,0.2,0.1,0.3,0.3,0.3h3.7c0.2,0,0.3-0.1,0.3-0.3v-1
		c0-0.2-0.1-0.3-0.3-0.3h-2.3v-1.6h2.3c0.2,0,0.3-0.1,0.3-0.3v-1c0-0.2-0.1-0.3-0.3-0.3h-2.3v-1.1h2.3c0.2,0,0.3-0.1,0.3-0.3v-0.9
		C76,72.9,75.9,72.8,75.7,72.8z"/>
	<path class="st0" d="M83,75.6c0,0-0.1,0-0.1-0.1c-0.6-0.3-1-0.6-1-0.9c0-0.2,0.1-0.3,0.2-0.4c0.1-0.1,0.3-0.2,0.5-0.2
		c0.2,0,0.3,0,0.4,0.1c0.1,0.1,0.2,0.2,0.3,0.4c0.1,0.1,0.2,0.2,0.4,0.1l0.8-0.4c0.1-0.1,0.2-0.2,0.1-0.4c-0.2-0.4-0.4-0.7-0.8-1
		c-0.4-0.2-0.8-0.3-1.4-0.3c-0.7,0-1.2,0.2-1.6,0.6c-0.4,0.4-0.6,0.9-0.6,1.5c0,0.5,0.1,0.9,0.4,1.3c0.3,0.3,0.8,0.7,1.6,1.1
		c0,0,0.1,0.1,0.2,0.1c0.4,0.2,0.8,0.5,0.8,0.8c0,0.2-0.1,0.4-0.2,0.5c-0.1,0.1-0.3,0.2-0.6,0.2c-0.3,0-0.5-0.1-0.7-0.2
		c-0.2-0.1-0.3-0.3-0.3-0.5c0-0.1-0.1-0.2-0.2-0.2c-0.1,0-0.2,0-0.2,0l-0.9,0.4c-0.1,0.1-0.2,0.2-0.2,0.3c0.1,0.6,0.4,1,0.8,1.3
		c0.4,0.3,0.9,0.4,1.6,0.4c0.8,0,1.4-0.2,1.8-0.6c0.5-0.4,0.7-1,0.7-1.7c0-0.5-0.1-0.9-0.4-1.3C84.2,76.3,83.7,76,83,75.6z"/>
	<path class="st0" d="M92.3,73.8c-0.4-0.4-0.8-0.6-1.2-0.8c-0.9-0.4-2-0.4-3,0c-0.5,0.2-0.9,0.5-1.3,0.8c-0.4,0.4-0.6,0.8-0.8,1.2
		c-0.2,0.5-0.3,0.9-0.3,1.5c0,0.5,0.1,1,0.3,1.5c0.2,0.5,0.5,0.9,0.8,1.2c0.4,0.4,0.8,0.6,1.2,0.8c0.5,0.2,1,0.3,1.5,0.3
		c0.5,0,1-0.1,1.5-0.3c0.5-0.2,0.9-0.5,1.3-0.8c0.4-0.4,0.7-0.8,0.8-1.2c0.2-0.5,0.3-0.9,0.3-1.5c0-0.5-0.1-1-0.3-1.5
		C92.9,74.5,92.7,74.1,92.3,73.8z M91.7,76.4c0,0.3-0.1,0.6-0.2,0.8c-0.1,0.3-0.3,0.5-0.5,0.7c-0.2,0.2-0.4,0.4-0.7,0.5
		c-0.5,0.2-1.1,0.2-1.6,0c-0.3-0.1-0.5-0.3-0.7-0.5c-0.2-0.2-0.4-0.4-0.5-0.7c-0.1-0.3-0.2-0.5-0.2-0.8c0-0.3,0.1-0.6,0.2-0.9
		c0.1-0.3,0.3-0.5,0.5-0.7c0.2-0.2,0.4-0.4,0.7-0.5c0.3-0.1,0.5-0.2,0.8-0.2c0.3,0,0.6,0.1,0.8,0.2c0.3,0.1,0.5,0.3,0.7,0.5
		c0.2,0.2,0.4,0.5,0.5,0.7C91.7,75.9,91.7,76.2,91.7,76.4z"/>
	<path class="st0" d="M98.3,78.5h-2.1v-5.4c0-0.2-0.1-0.3-0.3-0.3h-1.1c-0.2,0-0.3,0.1-0.3,0.3v6.7c0,0.2,0.1,0.3,0.3,0.3h3.5
		c0.2,0,0.3-0.1,0.3-0.3v-1C98.6,78.6,98.5,78.5,98.3,78.5z"/>
	<path class="st0" d="M105,72.8h-1.1c-0.2,0-0.3,0.1-0.3,0.3v4c0,0.5-0.1,0.9-0.3,1.2c-0.2,0.2-0.6,0.4-1,0.4c-0.5,0-0.8-0.1-1-0.4
		c-0.2-0.2-0.3-0.6-0.3-1.2v-4c0-0.2-0.1-0.3-0.3-0.3h-1.1c-0.2,0-0.3,0.1-0.3,0.3v4.1c0,1,0.3,1.7,0.8,2.2c0.5,0.5,1.3,0.8,2.3,0.8
		c1,0,1.8-0.3,2.3-0.8c0.5-0.5,0.8-1.3,0.8-2.2v-4.1C105.3,72.9,105.1,72.8,105,72.8z"/>
	<path class="st0" d="M110.8,72.8h-4.6c-0.2,0-0.3,0.1-0.3,0.3V74c0,0.2,0.1,0.3,0.3,0.3h1.5v5.5c0,0.2,0.1,0.3,0.3,0.3h1.1
		c0.2,0,0.3-0.1,0.3-0.3v-5.5h1.5c0.2,0,0.3-0.1,0.3-0.3v-0.9C111.1,72.9,111,72.8,110.8,72.8z"/>
	<path class="st0" d="M113.2,72.8h-1.1c-0.2,0-0.3,0.1-0.3,0.3v6.7c0,0.2,0.1,0.3,0.3,0.3h1.1c0.2,0,0.3-0.1,0.3-0.3v-6.7
		C113.5,72.9,113.4,72.8,113.2,72.8z"/>
	<path class="st0" d="M121.3,73.8c-0.4-0.4-0.8-0.6-1.2-0.8c-0.9-0.4-2-0.4-3,0c-0.5,0.2-0.9,0.5-1.3,0.8c-0.4,0.4-0.6,0.8-0.8,1.2
		c-0.2,0.5-0.3,0.9-0.3,1.5c0,0.5,0.1,1,0.3,1.5c0.2,0.5,0.5,0.9,0.8,1.2c0.4,0.4,0.8,0.6,1.2,0.8c0.5,0.2,1,0.3,1.5,0.3
		c0.5,0,1-0.1,1.5-0.3c0.5-0.2,0.9-0.5,1.3-0.8c0.4-0.4,0.7-0.8,0.8-1.2c0.2-0.5,0.3-0.9,0.3-1.5c0-0.5-0.1-1-0.3-1.5
		C121.9,74.5,121.6,74.1,121.3,73.8z M120.7,76.4c0,0.3-0.1,0.6-0.2,0.8c-0.1,0.3-0.3,0.5-0.5,0.7c-0.2,0.2-0.4,0.4-0.7,0.5
		c-0.5,0.2-1.1,0.2-1.6,0c-0.3-0.1-0.5-0.3-0.7-0.5c-0.2-0.2-0.4-0.4-0.5-0.7c-0.1-0.3-0.2-0.5-0.2-0.8c0-0.3,0.1-0.6,0.2-0.9
		c0.1-0.3,0.3-0.5,0.5-0.7c0.2-0.2,0.4-0.4,0.7-0.5c0.3-0.1,0.5-0.2,0.8-0.2c0.3,0,0.6,0.1,0.8,0.2c0.3,0.1,0.5,0.3,0.7,0.5
		c0.2,0.2,0.4,0.5,0.5,0.7C120.6,75.9,120.7,76.2,120.7,76.4z"/>
	<path class="st0" d="M129.8,72.8h-1c-0.2,0-0.3,0.1-0.3,0.3v3.8c-0.1-0.1-0.2-0.2-0.2-0.2l-4.2-4.1c-0.1-0.1-0.2-0.1-0.3-0.1
		c-0.1,0-0.2,0.2-0.2,0.3v6.9c0,0.2,0.1,0.3,0.3,0.3h1c0.2,0,0.3-0.1,0.3-0.3v-3.8c0.1,0.1,0.1,0.1,0.1,0.2l4.3,4.1
		c0.1,0.1,0.1,0.1,0.2,0.1c0,0,0.1,0,0.1,0c0.1,0,0.2-0.2,0.2-0.3v-6.9C130.1,72.9,129.9,72.8,129.8,72.8z"/>
	<path class="st0" d="M135.5,76.6c-0.3-0.3-0.8-0.6-1.5-1l-0.1-0.1c-0.6-0.3-1-0.6-1-0.9c0-0.2,0.1-0.3,0.2-0.4
		c0.1-0.1,0.3-0.2,0.5-0.2c0.2,0,0.3,0,0.4,0.1c0.1,0.1,0.2,0.2,0.3,0.4c0.1,0.1,0.2,0.2,0.4,0.1l0.8-0.4c0.1-0.1,0.2-0.2,0.1-0.4
		c-0.2-0.4-0.4-0.7-0.8-1c-0.4-0.2-0.8-0.3-1.4-0.3c-0.7,0-1.2,0.2-1.6,0.6c-0.4,0.4-0.6,0.9-0.6,1.5c0,0.5,0.1,0.9,0.4,1.3
		c0.3,0.3,0.8,0.7,1.6,1.1c0,0,0.1,0.1,0.2,0.1c0.4,0.2,0.8,0.5,0.8,0.8c0,0.2-0.1,0.4-0.2,0.5c-0.1,0.1-0.3,0.2-0.6,0.2
		c-0.3,0-0.5-0.1-0.7-0.2c-0.2-0.1-0.3-0.3-0.3-0.5c0-0.1-0.1-0.2-0.2-0.2c-0.1,0-0.2,0-0.2,0l-0.9,0.4c-0.1,0.1-0.2,0.2-0.2,0.3
		c0.1,0.6,0.4,1,0.8,1.3c0.4,0.3,0.9,0.4,1.6,0.4c0.8,0,1.4-0.2,1.8-0.6c0.5-0.4,0.7-1,0.7-1.7C136,77.4,135.8,77,135.5,76.6z"/>
</g>
<g id="XMLID_141_">
</g>
<g id="XMLID_142_">
</g>
<g id="XMLID_143_">
</g>
<g id="XMLID_144_">
</g>
<g id="XMLID_145_">
</g>
<g id="XMLID_146_">
</g>
<g id="XMLID_147_">
</g>
<g id="XMLID_148_">
</g>
<g id="XMLID_149_">
</g>
<g id="XMLID_150_">
</g>
<g id="XMLID_151_">
</g>
<g id="XMLID_152_">
</g>
<g id="XMLID_153_">
</g>
<g id="XMLID_154_">
</g>
<g id="XMLID_155_">
</g>
</svg>
