<?xml version="1.0" encoding="iso-8859-1"?>
<svg xmlns="http://www.w3.org/2000/svg" xmlns:xlink="http://www.w3.org/1999/xlink" version="1.1" viewBox="0 0 489.6 489.6" enable-background="new 0 0 489.6 489.6" width="512px" height="512px">
  <g>
    <g>
      <path d="M54.7,0v489.6h379.2h1V0H54.7z M413,468.8H74.5v-448H413V468.8z" fill="#3a3a3a"/>
      <rect width="146.9" x="106.8" y="115.6" height="20.8" fill="#3a3a3a"/>
      <polygon points="389.1,70.8 374.5,56.3 310.9,118.8 283.9,91.7 269.3,106.3 310.9,147.9   " fill="#3a3a3a"/>
      <rect width="146.9" x="106.8" y="250" height="20.8" fill="#3a3a3a"/>
      <polygon points="389.1,205.2 374.5,190.6 310.9,254.2 283.9,226 269.3,240.6 310.9,282.3   " fill="#3a3a3a"/>
      <rect width="146.9" x="106.8" y="384.4" height="20.8" fill="#3a3a3a"/>
      <polygon points="389.1,339.6 374.5,325 310.9,388.6 283.9,360.4 269.3,375 310.9,417.7   " fill="#3a3a3a"/>
    </g>
  </g>
</svg>
