<?xml version="1.0" encoding="utf-8"?>
<!-- Generator: Adobe Illustrator 19.0.0, SVG Export Plug-In . SVG Version: 6.00 Build 0)  -->
<svg version="1.1" id="Layer_1" xmlns="http://www.w3.org/2000/svg" xmlns:xlink="http://www.w3.org/1999/xlink" x="0px" y="0px"
	 viewBox="0 0 127.6 49.7" style="enable-background:new 0 0 127.6 49.7;" xml:space="preserve">
<style type="text/css">
	.st0{fill:#D2D2D2;}
</style>
<g id="XMLID_142_">
	<g id="XMLID_149_">
		<g id="XMLID_43_">
			<path id="XMLID_46_" class="st0" d="M81.9,47.5c-2.1,1.1-6.6,2.1-12.4,2.1c-15.3,0-24.6-9.6-24.6-24.2C44.8,9.6,55.9,0,70.6,0
				c5.8,0,9.9,1.2,11.7,2.1l-1.9,7c-2.3-1-5.4-1.9-9.4-1.9c-9.8,0-16.9,6.1-16.9,17.7c0,10.6,6.2,17.4,16.8,17.4
				c3.6,0,7.3-0.7,9.6-1.8L81.9,47.5z"/>
			<path id="XMLID_44_" class="st0" d="M89.4,49V0.8h10l12.4,20.7c3.2,5.4,6,10.9,8.2,16.2h0.1c-0.6-6.4-0.8-12.7-0.8-20V0.8h8.2V49
				h-9.1l-12.6-21.2c-3.1-5.3-6.3-11.2-8.7-16.7L97,11.2c0.4,6.2,0.4,12.6,0.4,20.5V49H89.4z"/>
		</g>
	</g>
	<polygon id="XMLID_146_" class="st0" points="42.3,0.8 31.7,34.6 30.2,29.4 23.1,49 25.3,19.1 27.5,24.9 32.9,0.8 	"/>
	<polygon id="XMLID_143_" class="st0" points="9.5,0.8 0,0.8 15.6,49 23.1,49 	"/>
</g>
<g id="XMLID_63_">
</g>
<g id="XMLID_64_">
</g>
<g id="XMLID_65_">
</g>
<g id="XMLID_66_">
</g>
<g id="XMLID_67_">
</g>
<g id="XMLID_68_">
</g>
<g id="XMLID_69_">
</g>
<g id="XMLID_70_">
</g>
<g id="XMLID_71_">
</g>
<g id="XMLID_72_">
</g>
<g id="XMLID_73_">
</g>
<g id="XMLID_74_">
</g>
<g id="XMLID_75_">
</g>
<g id="XMLID_76_">
</g>
<g id="XMLID_77_">
</g>
</svg>
