<?xml version="1.0" encoding="utf-8"?>
<!-- Generator: Adobe Illustrator 19.0.0, SVG Export Plug-In . SVG Version: 6.00 Build 0)  -->
<svg version="1.1" id="Layer_1" xmlns="http://www.w3.org/2000/svg" xmlns:xlink="http://www.w3.org/1999/xlink" x="0px" y="0px"
	 viewBox="-241 372.3 127.6 49.7" style="enable-background:new -241 372.3 127.6 49.7;" xml:space="preserve">
<style type="text/css">
	.st0{fill:#D2D2D2;}
	.st1{fill:#808080;}
</style>
<g id="XMLID_142_">
	<g id="XMLID_149_">
		<g id="XMLID_43_">
			<path id="XMLID_46_" class="st0" d="M-159.1,419.8c-2.1,1.1-6.6,2.1-12.4,2.1c-15.3,0-24.6-9.6-24.6-24.2
				c-0.1-15.8,11-25.4,25.7-25.4c5.8,0,9.9,1.2,11.7,2.1l-1.9,7c-2.3-1-5.4-1.9-9.4-1.9c-9.8,0-16.9,6.1-16.9,17.7
				c0,10.6,6.2,17.4,16.8,17.4c3.6,0,7.3-0.7,9.6-1.8L-159.1,419.8z"/>
			<path id="XMLID_44_" class="st0" d="M-151.6,421.3v-48.2h10l12.4,20.7c3.2,5.4,6,10.9,8.2,16.2h0.1c-0.6-6.4-0.8-12.7-0.8-20
				v-16.9h8.2v48.2h-9.1l-12.6-21.2c-3.1-5.3-6.3-11.2-8.7-16.7l-0.1,0.1c0.4,6.2,0.4,12.6,0.4,20.5v17.3H-151.6z"/>
		</g>
	</g>
	<polygon id="XMLID_146_" class="st1" points="-198.7,373.1 -209.3,406.9 -210.8,401.7 -217.9,421.3 -215.7,391.4 -213.5,397.2 
		-208.1,373.1 	"/>
	<polygon id="XMLID_143_" class="st0" points="-231.5,373.1 -241,373.1 -225.4,421.3 -217.9,421.3 	"/>
</g>
<g id="XMLID_63_">
</g>
<g id="XMLID_64_">
</g>
<g id="XMLID_65_">
</g>
<g id="XMLID_66_">
</g>
<g id="XMLID_67_">
</g>
<g id="XMLID_68_">
</g>
<g id="XMLID_69_">
</g>
<g id="XMLID_70_">
</g>
<g id="XMLID_71_">
</g>
<g id="XMLID_72_">
</g>
<g id="XMLID_73_">
</g>
<g id="XMLID_74_">
</g>
<g id="XMLID_75_">
</g>
<g id="XMLID_76_">
</g>
<g id="XMLID_77_">
</g>
</svg>
