<svg width="180px" height="43px" viewBox="0 0 180 43" version="1.1" xmlns="http://www.w3.org/2000/svg" xmlns:xlink="http://www.w3.org/1999/xlink">
    <g id="Pages" stroke="none" stroke-width="1" fill="none" fill-rule="evenodd">
        <g id="homepage" transform="translate(-480.000000, -545.000000)">
            <g id="header" transform="translate(480.000000, 540.000000)">
                <g id="logo" transform="translate(0.000000, 5.000000)">
                    <g>
                        <path d="M4.22478842,38.9030157 L1.14755011,38.9030157 L1.14755011,39.9055528 L4.07806236,39.9055528 C4.5374833,39.9055528 4.84817372,39.9835898 5.00973274,40.1392657 C5.17129176,40.295738 5.25187082,40.585988 5.25187082,41.0096176 L5.25187082,41.6498398 C5.25187082,42.0742657 5.17129176,42.3641176 5.00973274,42.5201917 C4.84817372,42.6762657 4.5374833,42.7543028 4.07806236,42.7543028 L1.17400891,42.7543028 C0.714587973,42.7543028 0.40389755,42.6762657 0.24233853,42.5201917 C0.08077951,42.3641176 -0.000200445434,42.0742657 -0.000200445434,41.6498398 L-0.000200445434,41.5220343 L0.965144766,41.3233583 L0.965144766,41.8755898 L4.2869265,41.8755898 L4.2869265,40.8109417 L1.35641425,40.8109417 C0.899799555,40.8109417 0.591514477,40.7329046 0.43155902,40.5768306 C0.271202673,40.4211546 0.191024499,40.1309046 0.191024499,39.7068769 L0.191024499,39.1900806 C0.191024499,38.7660528 0.271202673,38.4762009 0.43155902,38.3201269 C0.591514477,38.1640528 0.899799555,38.0860157 1.35641425,38.0860157 L4.02434298,38.0860157 C4.46652561,38.0860157 4.77080178,38.1612657 4.93837416,38.3113676 C5.10594655,38.4614694 5.18973274,38.7282287 5.18973274,39.1104509 L5.18973274,39.2079972 L4.22478842,39.4329509 L4.22478842,38.9030157 Z" id="Fill-1" fill="#707274"></path>
                        <polygon id="Fill-4" fill="#707274" points="7.06449889 42.754263 7.06449889 38.0859759 11.8759911 38.0859759 11.8759911 38.8806796 8.15853007 38.8806796 8.15853007 39.9234296 10.3285523 39.9234296 10.3285523 40.7185315 8.15853007 40.7185315 8.15853007 41.87555 11.92049 41.87555 11.92049 42.754263"></polygon>
                        <path d="M17.4287305,38.9205343 L14.4805791,38.9205343 L14.4805791,41.8755898 L17.4287305,41.8755898 L17.4287305,40.8726546 L18.5227617,41.0980065 L18.5227617,41.6498398 C18.5227617,42.0770528 18.4417817,42.3677009 18.2802227,42.5225806 C18.1186637,42.677062 17.8111804,42.7543028 17.3573719,42.7543028 L14.5515367,42.7543028 C14.094922,42.7543028 13.786637,42.677062 13.6266815,42.5225806 C13.4663252,42.3677009 13.3865479,42.0770528 13.3865479,41.6498398 L13.3865479,39.1900806 C13.3865479,38.7660528 13.4663252,38.4762009 13.6266815,38.3201269 C13.786637,38.1640528 14.094922,38.0860157 14.5515367,38.0860157 L17.3573719,38.0860157 C17.8111804,38.0860157 18.1186637,38.1640528 18.2802227,38.3201269 C18.4417817,38.4762009 18.5227617,38.7660528 18.5227617,39.1900806 L18.5227617,39.6316269 L17.4287305,39.804025 L17.4287305,38.9205343 Z" id="Fill-6" fill="#707274"></path>
                        <path d="M21.4157105,38.0861352 L21.4157105,41.8757093 L24.5330379,41.8757093 L24.5330379,38.0861352 L25.6226592,38.0861352 L25.6226592,41.6499593 C25.6226592,42.0767741 25.5424811,42.3678204 25.3825256,42.5227 C25.2225702,42.6767833 24.9142851,42.7544222 24.4576704,42.7544222 L21.487069,42.7544222 C21.0332606,42.7544222 20.7257773,42.6767833 20.5642183,42.5227 C20.4026592,42.3678204 20.3216793,42.0767741 20.3216793,41.6499593 L20.3216793,38.0861352 L21.4157105,38.0861352 Z" id="Fill-8" fill="#707274"></path>
                        <path d="M31.1085301,38.8940972 L28.6494655,38.8940972 L28.6494655,40.1928565 L31.1085301,40.1928565 C31.2981514,40.1928565 31.4276392,40.1653843 31.4973942,40.1112361 C31.5671492,40.0566898 31.6020267,39.960338 31.6020267,39.8217824 L31.6020267,39.2607917 C31.6020267,39.1254213 31.5671492,39.030662 31.4973942,38.9757176 C31.4276392,38.9211713 31.2981514,38.8940972 31.1085301,38.8940972 Z M27.5730735,42.7541435 L27.5730735,38.0862546 L31.5932071,38.0862546 C31.9668374,38.0862546 32.2370379,38.157125 32.4046102,38.3000602 C32.5721826,38.4429954 32.6559688,38.673125 32.6559688,38.9912454 L32.6559688,40.0865509 C32.6559688,40.4018843 32.5721826,40.6312176 32.4046102,40.7757454 C32.2370379,40.919875 31.9668374,40.992338 31.5932071,40.992338 L30.9794432,40.992338 L33.1494655,42.7541435 L31.5799777,42.7541435 L29.6853675,40.992338 L28.6494655,40.992338 L28.6494655,42.7541435 L27.5730735,42.7541435 Z" id="Fill-11" fill="#707274"></path>
                        <polygon id="Fill-13" fill="#707274" points="34.4196882 42.7543426 35.5137194 42.7543426 35.5137194 38.0860556 34.4196882 38.0860556"></polygon>
                        <polygon id="Fill-15" fill="#707274" points="39.6476258 38.9205343 39.6476258 42.7543028 38.5535947 42.7543028 38.5535947 38.9205343 36.3968018 38.9205343 36.3968018 38.0860157 41.8132383 38.0860157 41.8132383 38.9205343"></polygon>
                        <polygon id="Fill-16" fill="#707274" points="44.0081158 42.754263 44.0081158 40.6651796 41.5666904 38.0859759 43.0255323 38.0859759 44.6395189 39.878837 46.2583163 38.0859759 47.5431715 38.0859759 45.1109666 40.6389019 45.1109666 42.754263"></polygon>
                        <path d="M55.5047439,38.9030157 L52.4271047,38.9030157 L52.4271047,39.9055528 L55.3580178,39.9055528 C55.8170379,39.9055528 56.1281292,39.9835898 56.2892873,40.1392657 C56.4508463,40.295738 56.5318263,40.585988 56.5318263,41.0096176 L56.5318263,41.6498398 C56.5318263,42.0742657 56.4508463,42.3641176 56.2892873,42.5201917 C56.1281292,42.6762657 55.8170379,42.7543028 55.3580178,42.7543028 L52.4539644,42.7543028 C51.9941425,42.7543028 51.683853,42.6762657 51.522294,42.5201917 C51.360735,42.3641176 51.279755,42.0742657 51.279755,41.6498398 L51.279755,41.5220343 L52.2446993,41.3233583 L52.2446993,41.8755898 L55.566882,41.8755898 L55.566882,40.8109417 L52.6363697,40.8109417 C52.179755,40.8109417 51.8714699,40.7329046 51.7111136,40.5768306 C51.5511581,40.4211546 51.47098,40.1309046 51.47098,39.7068769 L51.47098,39.1900806 C51.47098,38.7660528 51.5511581,38.4762009 51.7111136,38.3201269 C51.8714699,38.1640528 52.179755,38.0860157 52.6363697,38.0860157 L55.3042984,38.0860157 C55.7464811,38.0860157 56.0507572,38.1612657 56.2183296,38.3113676 C56.3855011,38.4614694 56.4692873,38.7282287 56.4692873,39.1104509 L56.4692873,39.2079972 L55.5047439,39.4329509 L55.5047439,38.9030157 Z" id="Fill-17" fill="#707274"></path>
                        <path d="M59.3406682,41.8756296 L62.9470824,41.8756296 L62.9470824,38.9205741 L59.3406682,38.9205741 L59.3406682,41.8756296 Z M58.2462361,39.1901204 C58.2462361,38.7660926 58.3268151,38.4762407 58.4867706,38.3201667 C58.6467261,38.1636944 58.9550111,38.0860556 59.4116258,38.0860556 L62.871314,38.0860556 C63.3279287,38.0860556 63.6362138,38.1636944 63.7961693,38.3201667 C63.9565256,38.4762407 64.0367038,38.7660926 64.0367038,39.1901204 L64.0367038,41.6498796 C64.0367038,42.0770926 63.9565256,42.3677407 63.7961693,42.5226204 C63.6362138,42.6767037 63.3279287,42.7543426 62.871314,42.7543426 L59.4116258,42.7543426 C58.9550111,42.7543426 58.6467261,42.6767037 58.4867706,42.5226204 C58.3268151,42.3677407 58.2462361,42.0770926 58.2462361,41.6498796 L58.2462361,39.1901204 Z" id="Fill-18" fill="#707274"></path>
                        <polygon id="Fill-19" fill="#707274" points="65.8848508 42.754263 65.8848508 38.0859759 66.978882 38.0859759 66.978882 41.87555 70.505118 41.87555 70.505118 42.754263"></polygon>
                        <path d="M72.5844989,38.0861352 L72.5844989,41.8757093 L75.7018263,41.8757093 L75.7018263,38.0861352 L76.7914477,38.0861352 L76.7914477,41.6499593 C76.7914477,42.0767741 76.7112695,42.3678204 76.551314,42.5227 C76.3909577,42.6767833 76.0830735,42.7544222 75.6264588,42.7544222 L72.6558575,42.7544222 C72.202049,42.7544222 71.8941648,42.6767833 71.7330067,42.5227 C71.5714477,42.3678204 71.4904677,42.0767741 71.4904677,41.6499593 L71.4904677,38.0861352 L72.5844989,38.0861352 Z" id="Fill-20" fill="#707274"></path>
                        <polygon id="Fill-21" fill="#707274" points="80.9296036 38.9205343 80.9296036 42.7543028 79.8355724 42.7543028 79.8355724 38.9205343 77.6791804 38.9205343 77.6791804 38.0860157 83.095216 38.0860157 83.095216 38.9205343"></polygon>
                        <polygon id="Fill-22" fill="#707274" points="83.9786192 42.7543426 85.0726503 42.7543426 85.0726503 38.0860556 83.9786192 38.0860556"></polygon>
                        <path d="M88.0147884,41.8756296 L91.6212027,41.8756296 L91.6212027,38.9205741 L88.0147884,38.9205741 L88.0147884,41.8756296 Z M86.9207572,39.1901204 C86.9207572,38.7660926 87.0009354,38.4762407 87.1608909,38.3201667 C87.3212472,38.1636944 87.6291314,38.0860556 88.0857461,38.0860556 L91.5458352,38.0860556 C92.0024499,38.0860556 92.3103341,38.1636944 92.4702895,38.3201667 C92.6306459,38.4762407 92.7108241,38.7660926 92.7108241,39.1901204 L92.7108241,41.6498796 C92.7108241,42.0770926 92.6306459,42.3677407 92.4702895,42.5226204 C92.3103341,42.6767037 92.0024499,42.7543426 91.5458352,42.7543426 L88.0857461,42.7543426 C87.6291314,42.7543426 87.3212472,42.6767037 87.1608909,42.5226204 C87.0009354,42.3677407 86.9207572,42.0770926 86.9207572,41.6498796 L86.9207572,39.1901204 Z" id="Fill-23" fill="#707274"></path>
                        <path d="M94.5497105,42.754263 L94.5497105,38.0859759 L95.296971,38.0859759 L98.6055234,40.8375778 C98.7181737,40.9287537 98.8175947,41.0151519 98.9033853,41.0959759 C98.9891759,41.1768 99.0681514,41.260013 99.1391091,41.3452167 C99.121069,41.0836333 99.1094432,40.8976981 99.1034298,40.7886056 C99.0978174,40.6799111 99.0946102,40.5959019 99.0946102,40.5373741 L99.0946102,38.0859759 L100.077595,38.0859759 L100.077595,42.754263 L99.3303341,42.754263 L95.8794655,39.8704759 C95.7964811,39.7964204 95.7239198,39.7303278 95.6613808,39.6714019 C95.5992428,39.6124759 95.5419154,39.5523556 95.488196,39.4906426 C95.503029,39.6347722 95.513853,39.7709389 95.5214699,39.8987444 C95.528686,40.0269481 95.5326949,40.1384296 95.5326949,40.2323926 L95.5326949,42.754263 L94.5497105,42.754263 Z" id="Fill-24" fill="#707274"></path>
                        <path d="M106.092561,38.9030157 L103.015323,38.9030157 L103.015323,39.9055528 L105.945835,39.9055528 C106.405256,39.9055528 106.715947,39.9835898 106.877506,40.1392657 C107.039065,40.295738 107.120045,40.585988 107.120045,41.0096176 L107.120045,41.6498398 C107.120045,42.0742657 107.039065,42.3641176 106.877506,42.5201917 C106.715947,42.6762657 106.405256,42.7543028 105.945835,42.7543028 L103.042183,42.7543028 C102.582361,42.7543028 102.272071,42.6762657 102.110111,42.5201917 C101.948552,42.3641176 101.867973,42.0742657 101.867973,41.6498398 L101.867973,41.5220343 L102.832918,41.3233583 L102.832918,41.8755898 L106.154699,41.8755898 L106.154699,40.8109417 L103.224187,40.8109417 C102.767572,40.8109417 102.459287,40.7329046 102.299332,40.5768306 C102.139376,40.4211546 102.058797,40.1309046 102.058797,39.7068769 L102.058797,39.1900806 C102.058797,38.7660528 102.139376,38.4762009 102.299332,38.3201269 C102.459287,38.1640528 102.767572,38.0860157 103.224187,38.0860157 L105.892517,38.0860157 C106.334298,38.0860157 106.638575,38.1612657 106.806147,38.3113676 C106.973719,38.4614694 107.057506,38.7282287 107.057506,39.1104509 L107.057506,39.2079972 L106.092561,39.4329509 L106.092561,38.9030157 Z" id="Fill-25" fill="#707274"></path>
                        <path d="M113.097207,41.8755102 L114.51155,41.8755102 C115.264423,41.8755102 115.798009,41.7592509 116.112307,41.5263343 C116.426606,41.2938157 116.583755,40.9096028 116.583755,40.3740935 C116.583755,39.8967139 116.453465,39.5351954 116.192486,39.289538 C115.931506,39.0438806 115.545849,38.9204546 115.036316,38.9204546 L113.097207,38.9204546 L113.097207,41.8755102 Z M112.003176,42.7542231 L112.003176,38.0859361 L115.027096,38.0859361 C115.890214,38.0859361 116.553287,38.2862046 117.017118,38.6863435 C117.48135,39.0868806 117.713465,39.6554361 117.713465,40.3912139 C117.713465,40.8271861 117.622864,41.2197602 117.442062,41.568538 C117.261261,41.9169176 117.006294,42.192038 116.677163,42.3923065 C116.472708,42.5185194 116.218543,42.6108898 115.914267,42.667825 C115.610793,42.7255565 115.221528,42.7542231 114.747274,42.7542231 L112.003176,42.7542231 Z" id="Fill-26" fill="#707274"></path>
                        <polygon id="Fill-27" fill="#707274" points="119.26343 42.7543426 120.357461 42.7543426 120.357461 38.0860556 119.26343 38.0860556"></polygon>
                        <path d="M126.377078,38.9030157 L123.29984,38.9030157 L123.29984,39.9055528 L126.230352,39.9055528 C126.689773,39.9055528 127.000463,39.9835898 127.162022,40.1392657 C127.323581,40.295738 127.404561,40.585988 127.404561,41.0096176 L127.404561,41.6498398 C127.404561,42.0742657 127.323581,42.3641176 127.162022,42.5201917 C127.000463,42.6762657 126.689773,42.7543028 126.230352,42.7543028 L123.326699,42.7543028 C122.866878,42.7543028 122.556588,42.6762657 122.394628,42.5201917 C122.233069,42.3641176 122.15249,42.0742657 122.15249,41.6498398 L122.15249,41.5220343 L123.117434,41.3233583 L123.117434,41.8755898 L126.439216,41.8755898 L126.439216,40.8109417 L123.508704,40.8109417 C123.052089,40.8109417 122.743804,40.7329046 122.583849,40.5768306 C122.423893,40.4211546 122.343314,40.1309046 122.343314,39.7068769 L122.343314,39.1900806 C122.343314,38.7660528 122.423893,38.4762009 122.583849,38.3201269 C122.743804,38.1640528 123.052089,38.0860157 123.508704,38.0860157 L126.177033,38.0860157 C126.618815,38.0860157 126.923091,38.1612657 127.090664,38.3113676 C127.258236,38.4614694 127.342022,38.7282287 127.342022,39.1104509 L127.342022,39.2079972 L126.377078,39.4329509 L126.377078,38.9030157 Z" id="Fill-28" fill="#707274"></path>
                        <polygon id="Fill-29" fill="#707274" points="131.40465 38.9205343 131.40465 42.7543028 130.310619 42.7543028 130.310619 38.9205343 128.154227 38.9205343 128.154227 38.0860157 133.570263 38.0860157 133.570263 38.9205343"></polygon>
                        <path d="M137.989243,38.8940972 L135.529777,38.8940972 L135.529777,40.1928565 L137.989243,40.1928565 C138.178864,40.1928565 138.308352,40.1653843 138.378107,40.1112361 C138.447862,40.0566898 138.482339,39.960338 138.482339,39.8217824 L138.482339,39.2607917 C138.482339,39.1254213 138.447862,39.030662 138.378107,38.9757176 C138.308352,38.9211713 138.178864,38.8940972 137.989243,38.8940972 Z M134.453786,42.7541435 L134.453786,38.0862546 L138.47392,38.0862546 C138.84755,38.0862546 139.117751,38.157125 139.285323,38.3000602 C139.452494,38.4429954 139.536281,38.673125 139.536281,38.9912454 L139.536281,40.0865509 C139.536281,40.4018843 139.452494,40.6312176 139.285323,40.7757454 C139.117751,40.919875 138.84755,40.992338 138.47392,40.992338 L137.860156,40.992338 L140.030178,42.7541435 L138.46069,42.7541435 L136.56608,40.992338 L135.529777,40.992338 L135.529777,42.7541435 L134.453786,42.7541435 Z" id="Fill-30" fill="#707274"></path>
                        <polygon id="Fill-31" fill="#707274" points="141.3 42.7543426 142.394031 42.7543426 142.394031 38.0860556 141.3 38.0860556"></polygon>
                        <path d="M147.910891,40.7269722 L145.416147,40.7269722 L145.416147,41.9150463 L147.910891,41.9150463 C148.118552,41.9150463 148.258463,41.8839907 148.331425,41.8222778 C148.403586,41.7605648 148.440067,41.6514722 148.440067,41.4957963 L148.440067,41.1422407 C148.440067,40.9861667 148.403586,40.8778704 148.331425,40.81775 C148.258463,40.7572315 148.118552,40.7269722 147.910891,40.7269722 Z M147.910891,38.8453241 L145.416147,38.8453241 L145.416147,39.9585463 L147.910891,39.9585463 C148.100913,39.9585463 148.232004,39.9338611 148.304566,39.8836944 C148.377127,39.8335278 148.413608,39.7467315 148.413608,39.6229074 L148.413608,39.1813611 C148.413608,39.0603241 148.377127,38.9747222 148.304566,38.922963 C148.232004,38.8716019 148.100913,38.8453241 147.910891,38.8453241 Z M144.340156,42.7543426 L144.340156,38.0860556 L148.369109,38.0860556 C148.739532,38.0860556 149.007728,38.1581204 149.173697,38.30225 C149.339666,38.4463796 149.42265,38.6765093 149.42265,38.9914444 L149.42265,39.5607963 C149.42265,39.7849537 149.353296,39.9637222 149.214187,40.0978981 C149.074677,40.2316759 148.874232,40.3148889 148.613653,40.3471389 C148.883452,40.3825741 149.091514,40.4781296 149.238641,40.6346019 C149.385367,40.7902778 149.45833,40.9937315 149.45833,41.2437685 L149.45833,41.8401944 C149.45833,42.1491574 149.344477,42.3784907 149.11637,42.5289907 C148.888263,42.6790926 148.541091,42.7543426 148.075657,42.7543426 L144.340156,42.7543426 Z" id="Fill-32" fill="#707274"></path>
                        <path d="M152.209483,38.0861352 L152.209483,41.8757093 L155.326811,41.8757093 L155.326811,38.0861352 L156.416432,38.0861352 L156.416432,41.6499593 C156.416432,42.0767741 156.336254,42.3678204 156.176298,42.5227 C156.015942,42.6767833 155.708058,42.7544222 155.251443,42.7544222 L152.280842,42.7544222 C151.827033,42.7544222 151.519149,42.6767833 151.357991,42.5227 C151.196432,42.3678204 151.115452,42.0767741 151.115452,41.6499593 L151.115452,38.0861352 L152.209483,38.0861352 Z" id="Fill-33" fill="#707274"></path>
                        <polygon id="Fill-34" fill="#707274" points="160.554588 38.9205343 160.554588 42.7543028 159.460557 42.7543028 159.460557 38.9205343 157.304165 38.9205343 157.304165 38.0860157 162.7202 38.0860157 162.7202 38.9205343"></polygon>
                        <path d="M164.599777,41.8756296 L168.206192,41.8756296 L168.206192,38.9205741 L164.599777,38.9205741 L164.599777,41.8756296 Z M163.505746,39.1901204 C163.505746,38.7660926 163.585924,38.4762407 163.74588,38.3201667 C163.906236,38.1636944 164.21412,38.0860556 164.670735,38.0860556 L168.130824,38.0860556 C168.587439,38.0860556 168.895323,38.1636944 169.055679,38.3201667 C169.215635,38.4762407 169.295813,38.7660926 169.295813,39.1901204 L169.295813,41.6498796 C169.295813,42.0770926 169.215635,42.3677407 169.055679,42.5226204 C168.895323,42.6767037 168.587439,42.7543426 168.130824,42.7543426 L164.670735,42.7543426 C164.21412,42.7543426 163.906236,42.6767037 163.74588,42.5226204 C163.585924,42.3677407 163.505746,42.0770926 163.505746,41.6498796 L163.505746,39.1901204 Z" id="Fill-35" fill="#707274"></path>
                        <path d="M174.679336,38.8940972 L172.219871,38.8940972 L172.219871,40.1928565 L174.679336,40.1928565 C174.868958,40.1928565 174.998445,40.1653843 175.0682,40.1112361 C175.137955,40.0566898 175.172432,39.960338 175.172432,39.8217824 L175.172432,39.2607917 C175.172432,39.1254213 175.137955,39.030662 175.0682,38.9757176 C174.998445,38.9211713 174.868958,38.8940972 174.679336,38.8940972 Z M171.14388,42.7541435 L171.14388,38.0862546 L175.164013,38.0862546 C175.537644,38.0862546 175.807844,38.157125 175.975416,38.3000602 C176.142588,38.4429954 176.226374,38.673125 176.226374,38.9912454 L176.226374,40.0865509 C176.226374,40.4018843 176.142588,40.6312176 175.975416,40.7757454 C175.807844,40.919875 175.537644,40.992338 175.164013,40.992338 L174.550249,40.992338 L176.720272,42.7541435 L175.150784,42.7541435 L173.256174,40.992338 L172.219871,40.992338 L172.219871,42.7541435 L171.14388,42.7541435 Z" id="Fill-36" fill="#707274"></path>
                        <polygon id="Fill-37" fill="#707274" points="0.294654788 27.0231111 26.9951893 27.0231111 26.9951893 0.503259259 0.294654788 0.503259259"></polygon>
                        <path d="M26.8768864,13.7643 C26.8768864,21.0229389 20.9533229,26.9067722 13.6438797,26.9067722 C6.33283296,26.9067722 0.411674833,21.0229389 0.411674833,13.7643 C0.411674833,6.50327222 6.33283296,0.620235185 13.6438797,0.620235185 C20.9533229,0.620235185 26.8768864,6.50327222 26.8768864,13.7643" id="Fill-38" fill="#FEFEFE"></path>
                        <path d="M25.0722762,8.72776574 C25.0722762,11.8520343 22.5218085,14.3862472 19.3756169,14.3862472 C16.2266192,14.3862472 13.6769532,11.8520343 13.6769532,8.72776574 C13.6769532,5.60071019 16.2266192,3.06769167 19.3756169,3.06769167 C22.5218085,3.06769167 25.0722762,5.60071019 25.0722762,8.72776574" id="Fill-39" fill="#E21836"></path>
                        <path d="M62.0666058,7.83384352 L53.7056258,8.25110278 C53.5216169,5.94184352 52.1209042,4.78721389 49.5050913,4.78721389 C48.4403252,4.78721389 47.6221069,4.99584352 47.0500356,5.41270463 C46.4783653,5.82996389 46.1921292,6.32844537 46.1921292,6.90894537 C46.1921292,7.33217685 46.4222405,7.73430648 46.8824633,8.11493611 C47.3422851,8.49556574 48.43351,8.98250093 50.1561381,9.57454722 C52.3381871,10.3485472 54.112931,11.0795472 55.4803697,11.7691398 C56.8474076,12.4579361 57.9650913,13.352575 58.83302,14.4526583 C59.7005479,15.5531398 60.1343118,16.9251583 60.1343118,18.5687139 C60.1343118,20.1167139 59.6640668,21.5584083 58.7243786,22.8941954 C57.7838886,24.2299824 56.4296793,25.3300657 54.6617506,26.1940472 C52.8938218,27.0584269 50.3794343,27.4912139 47.1193898,27.4912139 C42.5311938,27.4912139 39.2771626,26.6809824 37.3576971,25.0609176 C35.4382316,23.4408528 34.4788998,21.3617231 34.4788998,18.8227324 L34.4788998,18.2063991 L42.8795679,17.6804454 C42.8795679,19.3367417 43.2768508,20.5068991 44.0722183,21.189325 C44.8679866,21.8725472 45.968833,22.2141583 47.375559,22.2141583 C48.7955145,22.2141583 49.8767171,21.9302787 50.619167,21.3617231 C51.3620178,20.7935657 51.7336437,20.146575 51.7336437,19.4215472 C51.7336437,18.8768806 51.497118,18.375612 51.0236659,17.9161491 C50.5502138,17.4566861 49.3868285,16.918788 47.5331091,16.3024546 C43.2864722,14.9001769 40.601706,13.6065935 39.477608,12.4217046 C38.3539109,11.2372139 37.791461,9.81025093 37.791461,8.14201019 C37.791461,6.61869537 38.2552918,5.22876019 39.1821514,3.97101019 C40.1090111,2.71365833 41.4564053,1.73779722 43.224735,1.04263056 C44.9926637,0.347463889 47.1121737,-0.000119444444 49.5840668,-0.000119444444 C57.4062494,-0.000119444444 61.5670958,2.61093611 62.0666058,7.83384352" id="Fill-40" fill="#707274"></path>
                        <path d="M87.2252339,7.79769167 L73.9541425,29.4856176 C72.652049,31.6009787 71.4064811,33.0219694 70.2170379,33.7473954 C69.0267929,34.4724231 67.5647439,34.8351361 65.8292873,34.8351361 C63.8312472,34.8351361 61.8656793,34.5870898 59.9329844,34.0917935 L60.5840312,29.1233028 C61.4383296,29.4374417 62.3122717,29.594312 63.2066592,29.594312 C64.7709354,29.594312 66.006882,28.742275 66.914098,27.0374046 L62.8911581,7.79769167 L70.7987305,7.79769167 L71.9228285,21.1623306 L72.0014031,21.1623306 L79.1204232,7.79769167 L87.2252339,7.79769167 Z" id="Fill-41" fill="#707274"></path>
                        <path d="M107.094788,12.4034296 L99.5816927,13.1467722 C99.3579955,11.9865685 98.4179065,11.4064667 96.7618263,11.4064667 C95.7888641,11.4064667 95.0528285,11.5693093 94.5533185,11.8957907 C94.0534076,12.2222722 93.8040535,12.6029019 93.8040535,13.0380778 C93.8040535,13.4855963 94.0237416,13.8570685 94.4643207,14.1536889 C94.9048998,14.4499111 96.0843207,14.7246333 98.0041871,14.9786519 C101.093051,15.4022815 103.147617,16.0393185 104.166281,16.8917537 C105.184944,17.7437907 105.694878,18.8832907 105.694878,20.3098556 C105.694878,22.2926333 104.695857,23.984763 102.697416,25.3874389 C100.698976,26.7897167 97.6558129,27.4912537 93.5671269,27.4912537 C90.227706,27.4912537 87.7822717,27.0437352 86.2316258,26.1490963 C84.6801782,25.2544574 83.7729621,23.7797167 83.5099777,21.7244759 L91.4371938,21.0894296 C91.7791537,22.6489759 92.8968374,23.4289481 94.7898441,23.4289481 C95.6706013,23.4289481 96.4491314,23.2533648 97.126637,22.9029944 C97.8033408,22.5526241 98.1420935,22.0505593 98.1420935,21.3979944 C98.1420935,20.8059481 97.8987528,20.4066056 97.4128731,20.200763 C96.9261915,19.9957167 96.0057461,19.7962444 94.6519376,19.6027444 C91.5358129,19.1552259 89.4263252,18.4783741 88.3218708,17.5713926 C87.2174165,16.6652074 86.6653898,15.5225222 86.6653898,14.1441333 C86.6653898,13.0201611 87.0791091,11.9204759 87.9077506,10.8438833 C88.7359911,9.76808704 89.9879733,8.91923519 91.6644989,8.29613333 C93.3402227,7.67382778 95.4012027,7.36207778 97.846637,7.36207778 C100.646459,7.36207778 102.792829,7.74031852 104.284944,8.49560556 C105.776659,9.25129074 106.713541,10.5536333 107.094788,12.4034296" id="Fill-42" fill="#707274"></path>
                        <polygon id="Fill-43" fill="#E21836" points="138.342748 0.453331481 136.863862 6.98136852 127.477002 6.98136852 122.764129 27.0376833 113.791791 27.0376833 118.48502 6.98136852 109.512281 6.98136852 111.011212 0.453331481"></polygon>
                        <path d="M146.429078,15.7404287 C146.520882,15.4744657 146.567385,15.1053824 146.567385,14.6343731 C146.567385,13.6545306 146.248276,12.9143731 145.61086,12.4127065 C144.973042,11.9110398 144.187296,11.6602065 143.254022,11.6602065 C142.268232,11.6602065 141.361016,12.0018176 140.532775,12.6846417 C139.704935,13.3678639 139.073532,14.3863269 138.639768,15.7404287 L146.429078,15.7404287 Z M153.133978,22.1048269 C151.963777,24.0155398 150.43518,25.3907435 148.548989,26.2308361 C146.662396,27.0705306 144.299546,27.490975 141.459635,27.490975 C137.331661,27.490975 134.396739,26.6357528 132.654869,24.9249102 C130.912597,23.2144657 130.041862,21.1198083 130.041862,18.6413361 C130.041862,16.9253176 130.449568,15.3080398 131.264579,13.7906972 C132.07959,12.2737528 133.184045,11.0016694 134.577942,9.97325278 C135.970637,8.94603056 137.344891,8.25404907 138.6991,7.89730833 C140.052909,7.54096574 141.637229,7.36219722 143.451261,7.36219722 C147.356339,7.36219722 150.15616,8.14216944 151.851929,9.70171574 C153.548098,11.261262 154.395982,13.1775491 154.395982,15.4501787 C154.395982,16.1998917 154.218388,17.4875028 153.863599,19.3126139 L137.910147,19.3126139 C138.133844,21.887438 139.389033,23.1750491 141.676918,23.1750491 C143.227964,23.1750491 144.463911,22.5945491 145.383955,21.4339472 L153.133978,22.1048269 Z" id="Fill-44" fill="#E21836"></path>
                        <path d="M166.633336,10.136812 C168.57886,8.28701574 171.056766,7.36211759 174.067857,7.36211759 C175.947234,7.36211759 177.357568,7.80963611 178.297657,8.704275 C179.236944,9.59891389 179.707189,10.6866546 179.707189,11.9686917 C179.707189,12.7418954 179.444205,14.2656083 178.919038,16.538238 L176.493247,27.0374046 L168.447367,27.0374046 L170.517969,18.0973861 C171.01788,15.9099602 171.267635,14.6581824 171.267635,14.3440435 C171.267635,13.2805898 170.741265,12.7482657 169.689728,12.7482657 C168.506699,12.7482657 167.474806,13.2590898 166.593648,14.2803398 C165.712891,15.301988 165.049016,16.7739417 164.602423,18.6958028 L162.630441,27.0374046 L154.545274,27.0374046 L160.776722,0.453450926 L168.802557,0.453450926 L166.554361,10.0643491 L166.633336,10.136812 Z" id="Fill-45" fill="#E21836"></path>
                    </g>
                </g>
            </g>
        </g>
    </g>
</svg>