<?xml version="1.0" encoding="utf-8"?>
<!-- Generator: Adobe Illustrator 22.0.0, SVG Export Plug-In . SVG Version: 6.00 Build 0)  -->
<svg version="1.1" id="Layer_1" xmlns="http://www.w3.org/2000/svg" xmlns:xlink="http://www.w3.org/1999/xlink" x="0px" y="0px"
	 viewBox="0 0 300 110" style="enable-background:new 0 0 300 110;" xml:space="preserve">
<style type="text/css">
	.st0{fill:url(#SVGID_1_);}
	.st1{fill:url(#SVGID_2_);}
	.st2{fill:url(#SVGID_3_);}
	.st3{fill:url(#SVGID_4_);}
	.st4{fill:url(#SVGID_5_);}
	.st5{fill:url(#SVGID_6_);}
	.st6{fill:url(#SVGID_7_);}
	.st7{fill:url(#SVGID_8_);}
	.st8{fill:url(#SVGID_9_);}
	.st9{fill:#A6A8AB;}
</style>
<g>
	<g>
		<linearGradient id="SVGID_1_" gradientUnits="userSpaceOnUse" x1="93.2275" y1="84.2341" x2="93.2275" y2="55.6379">
			<stop  offset="0" style="stop-color:#383B3B"/>
			<stop  offset="0.47" style="stop-color:#535555"/>
			<stop  offset="1" style="stop-color:#383B3B"/>
		</linearGradient>
		<path class="st0" d="M97.6,84.2H88V62.8H73.3l0-7.2h39.9v7.2H97.6V84.2z"/>
		<linearGradient id="SVGID_2_" gradientUnits="userSpaceOnUse" x1="134.8078" y1="84.2341" x2="134.8078" y2="55.6379">
			<stop  offset="0" style="stop-color:#383B3B"/>
			<stop  offset="0.47" style="stop-color:#535555"/>
			<stop  offset="1" style="stop-color:#383B3B"/>
		</linearGradient>
		<path class="st1" d="M151.9,55.6v7.2h-34.5v-7.2H151.9z M117.4,72.8v-5.5h18.7v5.5H117.4z M117.4,84.2v-7.2h34.8v7.2H117.4z"/>
		<linearGradient id="SVGID_3_" gradientUnits="userSpaceOnUse" x1="178.7384" y1="84.2341" x2="178.7384" y2="55.6379">
			<stop  offset="0" style="stop-color:#383B3B"/>
			<stop  offset="0.47" style="stop-color:#535555"/>
			<stop  offset="1" style="stop-color:#383B3B"/>
		</linearGradient>
		<path class="st2" d="M166.7,65.6l15.9-10h15.3L175,69.2c7.7,4.5,18.3,10.9,25.5,15.1H184l-17.3-10.6v10.6H157V55.6h9.7V65.6z"/>
		<linearGradient id="SVGID_4_" gradientUnits="userSpaceOnUse" x1="225.0246" y1="84.2341" x2="225.0246" y2="55.6379">
			<stop  offset="0" style="stop-color:#383B3B"/>
			<stop  offset="0.47" style="stop-color:#535555"/>
			<stop  offset="1" style="stop-color:#383B3B"/>
		</linearGradient>
		<path class="st3" d="M230.6,62.8h-24.1l-2.7-7.2h28.3c4.7,0,8.3,3.7,8.3,8.1v2.7c0,6-5.5,8-8.6,8l14.5,9.9h-14.8l-12.7-9.9h-5.2
			v9.9h-9.7V67.5h26.8V62.8z"/>
		<linearGradient id="SVGID_5_" gradientUnits="userSpaceOnUse" x1="269.741" y1="84.2341" x2="269.741" y2="55.6379">
			<stop  offset="0" style="stop-color:#383B3B"/>
			<stop  offset="0.47" style="stop-color:#535555"/>
			<stop  offset="1" style="stop-color:#383B3B"/>
		</linearGradient>
		<path class="st4" d="M269.9,64.8h-10.1l6-9.2h8l18.6,28.6h-10.6l-5.4-8.5h-14.2l-5.2,8.5h-9.8l9.8-15h15.7L269.9,64.8z"/>
	</g>
	<g>
		
			<linearGradient id="SVGID_6_" gradientUnits="userSpaceOnUse" x1="123.1243" y1="18.5789" x2="123.1243" y2="-11.6196" gradientTransform="matrix(0.8854 0.4648 -0.4648 0.8854 -50.8407 -34.558)">
			<stop  offset="0" style="stop-color:#21ADDE"/>
			<stop  offset="9.343886e-03" style="stop-color:#21ADDE"/>
			<stop  offset="0.2809" style="stop-color:#21ADDE"/>
			<stop  offset="0.7926" style="stop-color:#3F6FB1"/>
			<stop  offset="1" style="stop-color:#355E97"/>
		</linearGradient>
		<path class="st5" d="M65.8,32.7L50.8,18.9l3.3-6.4c-2-1.6-4.3-2.9-6.7-4L36.3,29.8l5.9,5.5l4.5-8.5l18.5,17.1l0.2-0.3
			c0.5-2.1,0.7-4.4,0.7-6.6C66.1,35.5,66,34.1,65.8,32.7z"/>
		
			<linearGradient id="SVGID_7_" gradientUnits="userSpaceOnUse" x1="95.6875" y1="28.0539" x2="95.6875" y2="58.252" gradientTransform="matrix(0.8854 0.4648 -0.4648 0.8854 -50.8407 -34.558)">
			<stop  offset="0" style="stop-color:#21ADDE"/>
			<stop  offset="9.343886e-03" style="stop-color:#21ADDE"/>
			<stop  offset="0.2809" style="stop-color:#21ADDE"/>
			<stop  offset="0.7926" style="stop-color:#3F6FB1"/>
			<stop  offset="1" style="stop-color:#355E97"/>
		</linearGradient>
		<path class="st6" d="M16.2,61.3c2,1.6,4.3,2.9,6.7,4l11.1-21.2l-5.9-5.5l-4.5,8.5L5.2,30L5,30.5c-0.4,2.1-0.7,4.2-0.7,6.4
			c0,1.5,0.1,2.9,0.3,4.3L19.5,55L16.2,61.3z"/>
		
			<linearGradient id="SVGID_8_" gradientUnits="userSpaceOnUse" x1="91.6333" y1="25.4847" x2="91.6333" y2="-6.5957" gradientTransform="matrix(0.8854 0.4648 -0.4648 0.8854 -50.8407 -34.558)">
			<stop  offset="0" style="stop-color:#21ADDE"/>
			<stop  offset="9.343886e-03" style="stop-color:#21ADDE"/>
			<stop  offset="0.2809" style="stop-color:#21ADDE"/>
			<stop  offset="0.7926" style="stop-color:#3F6FB1"/>
			<stop  offset="1" style="stop-color:#355E97"/>
		</linearGradient>
		<path class="st7" d="M6.9,24.5l21.3,11.2l5.5-5.9l-8.5-4.5L42.3,6.9l-0.2-0.1C39.9,6.3,37.6,6,35.2,6c-1.4,0-2.8,0.1-4.1,0.3
			L17.3,21.2l-6.4-3.4C9.3,19.9,7.9,22.1,6.9,24.5z"/>
		
			<linearGradient id="SVGID_9_" gradientUnits="userSpaceOnUse" x1="113.9242" y1="37.1198" x2="144.1226" y2="37.1198" gradientTransform="matrix(0.8854 0.4648 -0.4648 0.8854 -50.8407 -34.558)">
			<stop  offset="0" style="stop-color:#21ADDE"/>
			<stop  offset="9.343886e-03" style="stop-color:#21ADDE"/>
			<stop  offset="0.2809" style="stop-color:#21ADDE"/>
			<stop  offset="0.7926" style="stop-color:#3F6FB1"/>
			<stop  offset="1" style="stop-color:#355E97"/>
		</linearGradient>
		<path class="st8" d="M63.5,49.3L42.1,38L36.6,44l8.5,4.5L28,66.9l0.1,0.1c2.3,0.5,4.6,0.8,7.1,0.8c1.4,0,2.7-0.1,4-0.3L53,52.6
			l6.5,3.4C61.1,53.9,62.4,51.7,63.5,49.3z"/>
	</g>
	<g>
		<path class="st9" d="M31.4,102.8v-5.3h-2v-1.3h5.4v1.3h-2v5.3H31.4z"/>
		<path class="st9" d="M40.4,102.8v-6.6h4.9v1.3h-3.5v1.3h3.1v1.3h-3.1v1.4h3.5v1.3H40.4z"/>
		<path class="st9" d="M50.7,102.8l2.3-3.4l-2.2-3.2h1.7l1.4,2.1l1.4-2.1h1.6l-2.2,3.2l2.3,3.4h-1.7l-1.5-2.3l-1.5,2.3H50.7z"/>
		<path class="st9" d="M62.5,102.8v-6.6h1.4v2.6h2.7v-2.6H68v6.6h-1.4v-2.6h-2.7v2.6H62.5z"/>
		<path class="st9" d="M79.7,101.9c-0.7,0.7-1.5,1-2.5,1c-1,0-1.8-0.3-2.5-1c-0.7-0.7-1-1.5-1-2.4c0-0.9,0.3-1.8,1-2.4
			c0.7-0.7,1.5-1,2.5-1c1,0,1.8,0.3,2.5,1c0.7,0.7,1,1.5,1,2.4C80.7,100.5,80.4,101.3,79.7,101.9z M75.8,101
			c0.4,0.4,0.8,0.6,1.4,0.6c0.6,0,1-0.2,1.4-0.6c0.4-0.4,0.6-0.9,0.6-1.5c0-0.6-0.2-1.1-0.6-1.5c-0.4-0.4-0.8-0.6-1.4-0.6
			c-0.6,0-1,0.2-1.4,0.6c-0.4,0.4-0.6,0.9-0.6,1.5C75.3,100.1,75.4,100.6,75.8,101z"/>
		<path class="st9" d="M87,96.2h4.7v6.6h-1.4v-5.3h-1.9V98c0,1.3-0.1,2.3-0.2,3c-0.2,0.7-0.4,1.2-0.7,1.5s-0.7,0.4-1.2,0.4
			c-0.3,0-0.5,0-0.8-0.1l0.1-1.2c0.1,0,0.2,0,0.2,0c0.2,0,0.4,0,0.5-0.1c0.1-0.1,0.3-0.3,0.4-0.6c0.1-0.3,0.2-0.7,0.2-1.2
			c0.1-0.6,0.1-1.3,0.1-2.1V96.2z"/>
		<path class="st9" d="M103.4,101.9c-0.7,0.7-1.5,1-2.5,1c-1,0-1.8-0.3-2.5-1c-0.7-0.7-1-1.5-1-2.4c0-0.9,0.3-1.8,1-2.4
			c0.7-0.7,1.5-1,2.5-1c1,0,1.8,0.3,2.5,1c0.7,0.7,1,1.5,1,2.4C104.4,100.5,104.1,101.3,103.4,101.9z M99.5,101
			c0.4,0.4,0.8,0.6,1.4,0.6c0.6,0,1-0.2,1.4-0.6c0.4-0.4,0.6-0.9,0.6-1.5c0-0.6-0.2-1.1-0.6-1.5c-0.4-0.4-0.8-0.6-1.4-0.6
			c-0.6,0-1,0.2-1.4,0.6c-0.4,0.4-0.6,0.9-0.6,1.5C99,100.1,99.2,100.6,99.5,101z"/>
		<path class="st9" d="M111.6,97.5v5.3h-1.4v-6.6h4.6v1.3H111.6z"/>
		<path class="st9" d="M125.9,96.2v6.6h-1.4v-4.3l-2.9,4.3h-1.4v-6.6h1.4v4.3l2.9-4.3H125.9z"/>
		<path class="st9" d="M137.1,96.2v6.6h-1.4v-2.1h-1.1l-1.4,2.1h-1.7l1.6-2.4c-0.9-0.4-1.4-1-1.4-2.1c0-0.7,0.2-1.2,0.7-1.6
			c0.4-0.4,1-0.6,1.8-0.6H137.1z M134.2,99.4h1.5v-1.9h-1.4c-0.4,0-0.6,0.1-0.8,0.2c-0.2,0.2-0.3,0.4-0.3,0.7c0,0.3,0.1,0.5,0.3,0.7
			S133.8,99.4,134.2,99.4z"/>
		<path class="st9" d="M150.4,102.8v-6.6h1.4v2.6h2.7v-2.6h1.4v6.6h-1.4v-2.6h-2.7v2.6H150.4z"/>
		<path class="st9" d="M161.4,102.8l2.8-6.6h1.3l2.8,6.6h-1.5l-0.6-1.5h-2.8l-0.6,1.5H161.4z M164,100.1h1.7l-0.9-2.1L164,100.1z"/>
		<path class="st9" d="M181.1,102.8v-6.6h4.9v1.3h-3.5v1.3h3.1v1.3h-3.1v1.4h3.5v1.3H181.1z"/>
		<path class="st9" d="M191.2,104.2v-2.7h0.6c0.3-0.6,0.4-1.2,0.6-1.9c0.1-0.7,0.2-1.5,0.2-2.6v-0.8h4.8v5.3h0.8l-0.2,2.7h-1.2v-1.4
			h-4.1l-0.1,1.4H191.2z M195.8,97.5h-1.9v0.7c0,1.2-0.2,2.3-0.6,3.3h2.5V97.5z"/>
		<path class="st9" d="M203.5,102.8v-6.6h1.4v2.6h2.7v-2.6h1.4v6.6h-1.4v-2.6H205v2.6H203.5z"/>
		<path class="st9" d="M214.5,102.8l2.8-6.6h1.3l2.8,6.6H220l-0.6-1.5h-2.8l-0.6,1.5H214.5z M217.1,100.1h1.7l-0.9-2.1L217.1,100.1z
			"/>
		<path class="st9" d="M234.2,102.8v-6.6h1.4v2.9l2.7-2.9h1.7l-2.7,2.8l2.8,3.8h-1.7l-2-2.8l-0.8,0.8v2H234.2z"/>
		<path class="st9" d="M245.5,102.8v-6.6h2.7c0.8,0,1.4,0.2,1.8,0.6c0.4,0.4,0.7,1,0.7,1.7c0,0.7-0.2,1.3-0.7,1.7
			c-0.5,0.4-1.1,0.6-1.9,0.6H247v2H245.5z M247,99.5h1.1c0.4,0,0.6-0.1,0.8-0.3c0.2-0.2,0.3-0.4,0.3-0.7c0-0.3-0.1-0.6-0.3-0.7
			c-0.2-0.2-0.5-0.3-0.9-0.3H247V99.5z"/>
		<path class="st9" d="M255,102.8l2.8-6.6h1.3l2.8,6.6h-1.5l-0.6-1.5h-2.8l-0.6,1.5H255z M257.6,100.1h1.7l-0.9-2.1L257.6,100.1z"/>
		<path class="st9" d="M270.9,102.8v-2.5c-0.7,0.3-1.2,0.5-1.7,0.5c-0.7,0-1.2-0.2-1.6-0.6c-0.4-0.4-0.6-0.9-0.6-1.7v-2.4h1.4v2
			c0,0.9,0.4,1.3,1.1,1.3c0.6,0,1.1-0.1,1.4-0.4v-2.8h1.4v6.6H270.9z"/>
		<path class="st9" d="M278.3,102.8v-6.6h1.4v2.9l2.7-2.9h1.7l-2.7,2.8l2.8,3.8h-1.7l-2-2.8l-0.8,0.8v2H278.3z"/>
		<path class="st9" d="M289.1,102.8l2.8-6.6h1.3l2.8,6.6h-1.5l-0.6-1.5h-2.8l-0.6,1.5H289.1z M291.7,100.1h1.7l-0.9-2.1L291.7,100.1
			z"/>
	</g>
</g>
</svg>
